<?xml version="1.0" encoding="UTF-8" standalone="no"?>
<svg
   width="47.586704"
   height="41.959053"
   viewBox="0 0 47.586704 41.959053"
   fill="none"
   version="1.1"
   id="svg6"
   sodipodi:docname="Group 224.svg"
   inkscape:version="1.1 (c68e22c387, 2021-05-23)"
   xmlns:inkscape="http://www.inkscape.org/namespaces/inkscape"
   xmlns:sodipodi="http://sodipodi.sourceforge.net/DTD/sodipodi-0.dtd"
   xmlns="http://www.w3.org/2000/svg"
   xmlns:svg="http://www.w3.org/2000/svg">
  <defs
     id="defs10" />
  <sodipodi:namedview
     id="namedview8"
     pagecolor="#ffffff"
     bordercolor="#666666"
     borderopacity="1.0"
     inkscape:pageshadow="2"
     inkscape:pageopacity="0.0"
     inkscape:pagecheckerboard="0"
     showgrid="false"
     fit-margin-top="0"
     fit-margin-left="0"
     fit-margin-right="0"
     fit-margin-bottom="0"
     inkscape:zoom="13.015625"
     inkscape:cx="11.793517"
     inkscape:cy="21.205282"
     inkscape:window-width="1920"
     inkscape:window-height="1011"
     inkscape:window-x="0"
     inkscape:window-y="32"
     inkscape:window-maximized="1"
     inkscape:current-layer="svg6" />
  <path
     d="m 21.19489,22.656826 c -0.0836,0 -1.9211,0 -2.7564,0 -0.4455,0 -0.5847,-0.1652 -0.5847,-0.5782 0,-1.1014 0,-2.2303 0,-3.3317 0,-0.4405 0.1671,-0.5782 0.5847,-0.5782 h 2.7564 c 0,-0.0826 0,-1.6796 0,-2.423 0,-1.1014 0.1949,-2.1477 0.7517,-3.1114 0.5847,-0.9912 1.42,-1.6521 2.478,-2.0376 0.696,-0.2478 1.3921,-0.3579 2.1438,-0.3579 h 2.7286 c 0.3897,0 0.5568,0.1652 0.5568,0.5507 v 3.1389 c 0,0.3855 -0.1671,0.5507 -0.5568,0.5507 -0.7518,0 -1.5035,0 -2.2553,0.0275 -0.7517,0 -1.1415,0.358 -1.1415,1.1289 -0.0278,0.8261 0,1.6246 0,2.4781 h 3.2297 c 0.4455,0 0.6125,0.1652 0.6125,0.6058 v 3.3317 c 0,0.4405 -0.1392,0.5782 -0.6125,0.5782 -1.0023,0 -3.1462,0 -3.2297,0 v 8.9762 c 0,0.4681 -0.1392,0.6333 -0.6404,0.6333 -1.1693,0 -2.3109,0 -3.4802,0 -0.4177,0 -0.5847,-0.1652 -0.5847,-0.5782 0,-2.8911 0,-8.9212 0,-9.0038 z"
     fill="#3fb171"
     id="path2" />
  <path
     d="m 35.64079,40.442426 c -0.223,0.3841 -0.6306,0.6217 -1.0717,0.6245 l -21.8068,0.1421 c -0.447,0.0029 -0.8603,-0.2356 -1.083,-0.625 L 0.9154197,21.766326 c -0.22272,-0.3894 -0.2207,-0.8699 0.0053,-1.2592 L 11.94599,1.5165258 c 0.223,-0.3841 0.6306,-0.62159996 1.0716,-0.62449996 l 21.8068,-0.142 c 0.447,-0.0029 0.8603,0.2356 1.0831,0.62489996 l 10.7638,18.8177002 c 0.2227,0.3894 0.2207,0.8699 -0.0053,1.2592 z"
     stroke="#3fb171"
     stroke-width="1.5"
     id="path4" />
</svg>
