<?xml version="1.0" encoding="UTF-8" standalone="no"?>
<svg
   width="47.586704"
   height="41.959053"
   viewBox="0 0 47.586704 41.959053"
   fill="none"
   version="1.1"
   id="svg903"
   sodipodi:docname="Group 447.svg"
   inkscape:version="1.1 (c68e22c387, 2021-05-23)"
   xmlns:inkscape="http://www.inkscape.org/namespaces/inkscape"
   xmlns:sodipodi="http://sodipodi.sourceforge.net/DTD/sodipodi-0.dtd"
   xmlns="http://www.w3.org/2000/svg"
   xmlns:svg="http://www.w3.org/2000/svg">
  <sodipodi:namedview
     id="namedview905"
     pagecolor="#ffffff"
     bordercolor="#666666"
     borderopacity="1.0"
     inkscape:pageshadow="2"
     inkscape:pageopacity="0.0"
     inkscape:pagecheckerboard="0"
     showgrid="false"
     fit-margin-top="0"
     fit-margin-left="0"
     fit-margin-right="0"
     fit-margin-bottom="0"
     inkscape:zoom="13.015625"
     inkscape:cx="11.793517"
     inkscape:cy="21.205282"
     inkscape:window-width="1920"
     inkscape:window-height="1011"
     inkscape:window-x="0"
     inkscape:window-y="32"
     inkscape:window-maximized="1"
     inkscape:current-layer="svg903" />
  <path
     d="m 35.64079,40.442426 c -0.223,0.3841 -0.6306,0.6217 -1.0717,0.6245 l -21.8068,0.1421 c -0.447,0.0029 -0.8603,-0.2356 -1.083,-0.625 L 0.9154197,21.766326 c -0.22272,-0.3894 -0.2207,-0.8699 0.0053,-1.2592 L 11.94599,1.5165258 c 0.223,-0.3841 0.6306,-0.62159996 1.0716,-0.62449996 l 21.8068,-0.142 c 0.447,-0.0029 0.8603,0.2356 1.0831,0.62489996 l 10.7638,18.8177002 c 0.2227,0.3894 0.2207,0.8699 -0.0053,1.2592 z"
     stroke="#3fb171"
     stroke-width="1.5"
     id="path888" />
  <g
     clip-path="url(#clip0)"
     id="g896"
     transform="translate(-7.1462103,-10.761174)">
    <path
       d="M 36.377,21 H 26.7073 C 23.5603,21 21,23.5603 21,26.7073 v 9.6699 c 0,3.1469 2.5603,5.7072 5.7073,5.7072 h 9.6699 c 3.1469,0 5.7072,-2.5603 5.7072,-5.7072 V 26.7073 C 42.0844,23.5603 39.5241,21 36.377,21 Z m -4.8348,16.3073 c -3.1789,0 -5.7651,-2.5862 -5.7651,-5.7651 0,-3.1789 2.5862,-5.7651 5.7651,-5.7651 3.1789,0 5.7651,2.5862 5.7651,5.7651 0,3.1789 -2.5862,5.7651 -5.7651,5.7651 z m 5.9029,-10.1706 c -0.9394,0 -1.7035,-0.7641 -1.7035,-1.7035 0,-0.9395 0.7641,-1.7037 1.7035,-1.7037 0.9395,0 1.7037,0.7642 1.7037,1.7037 0,0.9394 -0.7642,1.7035 -1.7037,1.7035 z"
       fill="#3fb171"
       id="path890" />
    <path
       d="m 31.5422,27.0132 c -2.4972,0 -4.529,2.0317 -4.529,4.529 0,2.4972 2.0318,4.5291 4.529,4.5291 2.4974,0 4.5291,-2.0319 4.5291,-4.5291 0,-2.4973 -2.0317,-4.529 -4.5291,-4.529 z"
       fill="#3fb171"
       id="path892" />
    <path
       d="m 37.4451,24.9658 c -0.2577,0 -0.4674,0.2098 -0.4674,0.4675 0,0.2577 0.2097,0.4674 0.4674,0.4674 0.2579,0 0.4676,-0.2096 0.4676,-0.4674 0,-0.2579 -0.2097,-0.4675 -0.4676,-0.4675 z"
       fill="#3fb171"
       id="path894" />
  </g>
  <defs
     id="defs901">
    <clipPath
       id="clip0">
      <rect
         width="21.0844"
         height="21.0844"
         fill="#ffffff"
         transform="translate(21,21)"
         id="rect898"
         x="0"
         y="0" />
    </clipPath>
  </defs>
</svg>
