<svg width="222" height="46" viewBox="0 0 222 46" fill="none" xmlns="http://www.w3.org/2000/svg">
<path d="M71.97 14.82C71.17 14.82 70.55 14.6 70.11 14.16C69.69 13.7 69.48 13.15 69.48 12.51C69.48 12.35 69.5 12.16 69.54 11.94C69.6 11.72 69.67 11.53 69.75 11.37C70.01 11.49 70.39 11.58 70.89 11.64C71.41 11.68 72.01 11.7 72.69 11.7C73.71 11.7 74.86 11.66 76.14 11.58C77.44 11.48 78.68 11.38 79.86 11.28C81.04 11.18 82.08 11.09 82.98 11.01C83.88 10.91 84.46 10.86 84.72 10.86C85.46 10.86 85.99 11.14 86.31 11.7C86.65 12.24 86.9 12.97 87.06 13.89C86.54 13.85 86.02 13.82 85.5 13.8C85 13.76 84.57 13.74 84.21 13.74C83.57 13.74 82.92 13.76 82.26 13.8C81.62 13.84 80.97 13.9 80.31 13.98C80.03 14.56 79.72 15.25 79.38 16.05C79.04 16.83 78.7 17.65 78.36 18.51C78.04 19.37 77.73 20.23 77.43 21.09C77.13 21.93 76.87 22.69 76.65 23.37C76.21 24.69 75.82 25.91 75.48 27.03C75.16 28.15 74.87 29.2 74.61 30.18C74.37 31.14 74.16 32.06 73.98 32.94C73.8 33.82 73.64 34.68 73.5 35.52C72.16 35.32 71.04 34.48 70.14 33C70.3 32.38 70.49 31.71 70.71 30.99C70.95 30.25 71.22 29.42 71.52 28.5C71.84 27.56 72.21 26.5 72.63 25.32C73.05 24.14 73.53 22.8 74.07 21.3C74.27 20.74 74.48 20.16 74.7 19.56C74.92 18.94 75.13 18.33 75.33 17.73C75.55 17.13 75.74 16.55 75.9 15.99C76.08 15.43 76.23 14.92 76.35 14.46C75.51 14.56 74.71 14.65 73.95 14.73C73.21 14.79 72.55 14.82 71.97 14.82ZM79.897 32.4C79.997 31.82 80.167 31.06 80.407 30.12C80.667 29.16 80.967 28.15 81.307 27.09C81.647 26.01 82.007 24.93 82.387 23.85C82.767 22.77 83.137 21.8 83.497 20.94C83.757 20.32 83.987 19.84 84.187 19.5C84.387 19.14 84.607 18.84 84.847 18.6C85.127 18.64 85.417 18.71 85.717 18.81C86.017 18.91 86.307 19.03 86.587 19.17C86.867 19.31 87.117 19.46 87.337 19.62C87.557 19.76 87.727 19.9 87.847 20.04C87.307 20.68 86.827 21.41 86.407 22.23C86.007 23.05 85.597 24.1 85.177 25.38C86.257 24.42 87.207 23.5 88.027 22.62C88.867 21.74 89.647 20.76 90.367 19.68C90.487 19.58 90.697 19.53 90.997 19.53C91.277 19.53 91.547 19.58 91.807 19.68C92.067 19.76 92.247 19.88 92.347 20.04C91.987 21 91.807 21.95 91.807 22.89C91.807 23.77 91.937 24.43 92.197 24.87C92.177 24.99 92.037 25.22 91.777 25.56C91.537 25.9 91.267 26.22 90.967 26.52C90.427 26.24 89.947 25.86 89.527 25.38C89.107 24.88 88.797 24.34 88.597 23.76C87.657 24.42 86.857 25.07 86.197 25.71C85.537 26.33 84.967 27.03 84.487 27.81C84.027 28.57 83.627 29.45 83.287 30.45C82.967 31.45 82.657 32.64 82.357 34.02C82.177 34 81.957 33.93 81.697 33.81C81.457 33.71 81.207 33.58 80.947 33.42C80.707 33.26 80.487 33.09 80.287 32.91C80.087 32.73 79.957 32.56 79.897 32.4ZM103.067 20.88C103.267 20.88 103.497 20.92 103.757 21C104.037 21.06 104.287 21.15 104.507 21.27C104.727 21.37 104.907 21.48 105.047 21.6C105.207 21.72 105.287 21.83 105.287 21.93C104.887 22.77 104.517 23.62 104.177 24.48C103.837 25.32 103.547 26.13 103.307 26.91C103.067 27.69 102.877 28.42 102.737 29.1C102.617 29.78 102.557 30.37 102.557 30.87C102.557 31.43 102.617 31.9 102.737 32.28C102.857 32.64 103.057 32.9 103.337 33.06C103.097 33.22 102.787 33.35 102.407 33.45C102.027 33.55 101.687 33.6 101.387 33.6C100.307 33.6 99.7666 32.86 99.7666 31.38C99.7666 30.24 100.147 28.68 100.907 26.7C100.507 27.62 100.047 28.49 99.5266 29.31C99.0066 30.11 98.4766 30.82 97.9366 31.44C97.3966 32.06 96.8466 32.57 96.2866 32.97C95.7466 33.35 95.2466 33.58 94.7866 33.66C94.0466 33.62 93.4466 33.27 92.9866 32.61C92.5266 31.93 92.2966 31.07 92.2966 30.03C92.2966 28.91 92.5366 27.73 93.0166 26.49C93.4966 25.25 94.1066 24.1 94.8466 23.04C95.6066 21.98 96.4266 21.1 97.3066 20.4C98.1866 19.68 99.0366 19.3 99.8566 19.26C100.057 19.32 100.277 19.44 100.517 19.62C100.777 19.8 101.017 20.01 101.237 20.25C101.477 20.49 101.677 20.74 101.837 21C101.997 21.24 102.087 21.45 102.107 21.63C101.307 21.75 100.477 22.14 99.6166 22.8C98.7766 23.46 98.0066 24.26 97.3066 25.2C96.6266 26.12 96.0666 27.11 95.6266 28.17C95.1866 29.23 94.9666 30.22 94.9666 31.14C94.9666 31.52 95.1066 31.76 95.3866 31.86C95.9666 31.74 96.6366 31.25 97.3966 30.39C98.1566 29.51 99.0766 28.16 100.157 26.34C100.357 25.98 100.577 25.58 100.817 25.14C101.077 24.7 101.337 24.24 101.597 23.76C101.857 23.28 102.107 22.8 102.347 22.32C102.607 21.82 102.847 21.34 103.067 20.88ZM108.107 22.38C108.107 22.02 108.127 21.68 108.167 21.36C108.227 21.04 108.337 20.77 108.497 20.55C108.657 20.31 108.877 20.13 109.157 20.01C109.437 19.87 109.807 19.8 110.267 19.8C110.547 19.8 110.857 19.83 111.197 19.89C111.557 19.95 111.817 20.06 111.977 20.22C111.897 20.56 111.827 20.86 111.767 21.12C111.727 21.38 111.687 21.67 111.647 21.99C111.627 22.29 111.607 22.66 111.587 23.1C111.567 23.52 111.547 24.07 111.527 24.75C111.487 26.11 111.417 27.33 111.317 28.41C111.237 29.47 111.037 30.53 110.717 31.59C110.717 31.67 110.747 31.71 110.807 31.71C111.107 31.49 111.447 31.17 111.827 30.75C112.207 30.33 112.607 29.86 113.027 29.34C113.447 28.8 113.867 28.23 114.287 27.63C114.707 27.03 115.097 26.44 115.457 25.86C115.937 25.02 116.467 23.97 117.047 22.71C117.627 21.45 118.107 20.1 118.487 18.66C118.607 18.66 118.757 18.69 118.937 18.75C119.137 18.79 119.327 18.85 119.507 18.93C119.707 18.99 119.877 19.06 120.017 19.14C120.177 19.22 120.287 19.29 120.347 19.35C120.307 20.21 120.097 21.09 119.717 21.99C119.357 22.89 118.917 23.76 118.397 24.6C117.877 25.44 117.327 26.23 116.747 26.97C116.167 27.71 115.637 28.35 115.157 28.89C114.197 30.01 113.227 31.01 112.247 31.89C111.287 32.77 110.137 33.62 108.797 34.44C108.277 34.24 107.867 33.97 107.567 33.63C107.267 33.31 107.117 32.97 107.117 32.61C107.117 32.37 107.167 32.1 107.267 31.8C107.387 31.48 107.517 31.08 107.657 30.6C107.797 30.1 107.917 29.48 108.017 28.74C108.137 28 108.197 27.06 108.197 25.92C108.197 25.26 108.177 24.6 108.137 23.94C108.117 23.26 108.107 22.74 108.107 22.38ZM130.644 20.58C130.564 21.82 130.344 22.89 129.984 23.79C129.624 24.67 129.104 25.45 128.424 26.13C127.764 26.79 126.954 27.39 125.994 27.93C125.034 28.47 123.914 28.99 122.634 29.49C122.634 29.61 122.624 29.74 122.604 29.88C122.604 30 122.604 30.13 122.604 30.27C122.604 30.53 122.624 30.8 122.664 31.08C122.704 31.36 122.774 31.62 122.874 31.86C122.974 32.1 123.114 32.3 123.294 32.46C123.474 32.6 123.704 32.67 123.984 32.67C124.524 32.67 125.054 32.55 125.574 32.31C126.094 32.07 126.584 31.78 127.044 31.44C127.524 31.08 127.964 30.7 128.364 30.3C128.784 29.88 129.154 29.5 129.474 29.16C129.674 29.34 129.844 29.51 129.984 29.67C129.084 30.87 128.094 31.87 127.014 32.67C125.954 33.45 124.944 33.95 123.984 34.17C122.604 34.01 121.524 33.51 120.744 32.67C119.984 31.81 119.604 30.78 119.604 29.58C119.604 28.76 119.714 27.93 119.934 27.09C120.174 26.23 120.494 25.41 120.894 24.63C121.314 23.83 121.794 23.08 122.334 22.38C122.894 21.68 123.484 21.07 124.104 20.55C124.744 20.03 125.394 19.62 126.054 19.32C126.734 19.02 127.404 18.87 128.064 18.87C128.984 18.99 129.844 19.56 130.644 20.58ZM128.574 21.57C128.034 21.65 127.474 21.87 126.894 22.23C126.314 22.59 125.764 23.07 125.244 23.67C124.744 24.27 124.284 24.97 123.864 25.77C123.444 26.57 123.114 27.43 122.874 28.35C124.474 27.55 125.804 26.57 126.864 25.41C127.924 24.23 128.494 22.95 128.574 21.57ZM132.003 31.08C132.003 30.2 132.213 28.97 132.633 27.39C133.053 25.79 133.643 23.93 134.403 21.81C135.643 18.43 136.803 15.62 137.883 13.38C138.983 11.12 140.053 9.36 141.093 8.1C141.333 8.14 141.623 8.24 141.963 8.4C142.323 8.56 142.673 8.74 143.013 8.94C143.353 9.12 143.653 9.31 143.913 9.51C144.193 9.71 144.373 9.87 144.453 9.99C142.893 11.83 141.523 13.81 140.343 15.93C139.163 18.05 138.083 20.48 137.103 23.22C136.263 25.58 135.623 27.71 135.183 29.61C134.743 31.49 134.523 33.06 134.523 34.32C134.523 34.66 134.523 34.87 134.523 34.95C134.523 35.03 134.533 35.11 134.553 35.19C134.273 35.15 134.033 35.08 133.833 34.98C133.633 34.88 133.503 34.76 133.443 34.62C133.403 34.52 133.293 34.37 133.113 34.17C132.933 33.99 132.773 33.85 132.633 33.75C132.453 33.63 132.303 33.32 132.183 32.82C132.063 32.3 132.003 31.72 132.003 31.08ZM166.821 16.83C166.821 17.93 166.541 18.98 165.981 19.98C165.441 20.98 164.701 21.86 163.761 22.62C162.841 23.36 161.751 23.95 160.491 24.39C159.251 24.83 157.931 25.05 156.531 25.05C156.031 25.05 155.631 24.99 155.331 24.87C155.051 24.73 154.731 24.47 154.371 24.09C153.371 26.27 152.551 28.28 151.911 30.12C151.291 31.94 150.801 33.71 150.441 35.43C149.681 35.25 149.061 34.93 148.581 34.47C148.101 34.03 147.661 33.47 147.261 32.79C147.461 32.41 147.701 31.91 147.981 31.29C148.261 30.67 148.601 29.91 149.001 29.01C149.401 28.09 149.861 27 150.381 25.74C150.921 24.46 151.551 22.97 152.271 21.27C152.591 20.49 152.871 19.81 153.111 19.23C153.351 18.65 153.561 18.11 153.741 17.61C153.921 17.09 154.081 16.58 154.221 16.08C154.381 15.58 154.541 15.03 154.701 14.43C153.761 14.73 152.891 15.08 152.091 15.48C151.311 15.88 150.661 16.3 150.141 16.74C149.961 16.62 149.771 16.44 149.571 16.2C149.391 15.96 149.221 15.7 149.061 15.42C148.901 15.12 148.761 14.82 148.641 14.52C148.521 14.22 148.451 13.95 148.431 13.71C149.011 13.31 149.731 12.94 150.591 12.6C151.451 12.26 152.371 11.97 153.351 11.73C154.331 11.47 155.341 11.27 156.381 11.13C157.441 10.99 158.451 10.92 159.411 10.92C160.551 10.92 161.581 11.07 162.501 11.37C163.421 11.65 164.201 12.05 164.841 12.57C165.481 13.09 165.971 13.71 166.311 14.43C166.651 15.15 166.821 15.95 166.821 16.83ZM161.481 13.23C160.721 13.23 159.941 13.29 159.141 13.41L159.501 13.95C159.301 14.21 159.051 14.6 158.751 15.12C158.451 15.64 158.121 16.27 157.761 17.01C157.401 17.73 157.001 18.54 156.561 19.44C156.141 20.34 155.691 21.29 155.211 22.29C156.771 22.29 158.191 22.15 159.471 21.87C160.751 21.57 161.841 21.17 162.741 20.67C163.661 20.15 164.371 19.55 164.871 18.87C165.391 18.19 165.651 17.46 165.651 16.68C165.651 15.64 165.301 14.81 164.601 14.19C163.901 13.55 162.861 13.23 161.481 13.23ZM168.561 34.05C167.421 33.93 166.511 33.43 165.831 32.55C165.151 31.67 164.811 30.55 164.811 29.19C164.811 28.39 164.931 27.56 165.171 26.7C165.411 25.84 165.751 25.01 166.191 24.21C166.631 23.39 167.151 22.62 167.751 21.9C168.351 21.18 169.001 20.56 169.701 20.04C170.801 19.22 171.831 18.81 172.791 18.81C173.431 19.15 174.061 19.86 174.681 20.94C174.781 20.94 174.871 20.94 174.951 20.94C175.031 20.92 175.121 20.91 175.221 20.91C176.281 20.91 176.811 21.85 176.811 23.73C176.811 24.99 176.601 26.19 176.181 27.33C175.781 28.45 175.211 29.47 174.471 30.39C173.751 31.31 172.881 32.09 171.861 32.73C170.861 33.35 169.761 33.79 168.561 34.05ZM170.091 24.6C169.751 25.06 169.431 25.56 169.131 26.1C168.831 26.64 168.571 27.19 168.351 27.75C168.131 28.29 167.961 28.82 167.841 29.34C167.721 29.84 167.661 30.29 167.661 30.69C167.661 31.17 167.741 31.63 167.901 32.07C168.061 32.51 168.241 32.76 168.441 32.82C169.341 32.62 170.161 32.25 170.901 31.71C171.661 31.15 172.311 30.46 172.851 29.64C173.411 28.82 173.841 27.89 174.141 26.85C174.461 25.81 174.621 24.7 174.621 23.52C174.621 23 174.591 22.59 174.531 22.29C174.471 21.99 174.371 21.73 174.231 21.51C173.351 21.77 172.561 22.19 171.861 22.77C171.181 23.35 170.591 23.96 170.091 24.6ZM178.324 30.18C178.324 29.46 178.504 28.46 178.864 27.18C179.244 25.9 179.734 24.5 180.334 22.98C180.934 21.46 181.614 19.89 182.374 18.27C183.134 16.65 183.894 15.14 184.654 13.74C185.434 12.34 186.174 11.13 186.874 10.11C187.594 9.09 188.204 8.4 188.704 8.04C188.984 8.06 189.284 8.18 189.604 8.4C189.944 8.62 190.254 8.89 190.534 9.21C190.814 9.51 191.044 9.83 191.224 10.17C191.424 10.51 191.524 10.82 191.524 11.1C190.624 11.82 189.704 12.75 188.764 13.89C187.844 15.01 186.964 16.25 186.124 17.61C185.284 18.95 184.504 20.38 183.784 21.9C183.084 23.4 182.494 24.88 182.014 26.34C182.654 25.24 183.324 24.24 184.024 23.34C184.724 22.44 185.424 21.67 186.124 21.03C186.824 20.39 187.504 19.9 188.164 19.56C188.844 19.2 189.484 19.01 190.084 18.99C190.964 19.63 191.404 20.48 191.404 21.54C191.404 22.18 191.274 22.83 191.014 23.49C190.754 24.13 190.404 24.73 189.964 25.29C189.544 25.83 189.054 26.3 188.494 26.7C187.954 27.08 187.384 27.33 186.784 27.45C186.984 28.15 187.234 28.86 187.534 29.58C187.854 30.3 188.224 31 188.644 31.68C189.084 32.36 189.574 32.99 190.114 33.57C190.674 34.15 191.304 34.64 192.004 35.04C191.904 35.24 191.754 35.44 191.554 35.64C191.354 35.84 191.114 36.01 190.834 36.15C190.554 36.31 190.244 36.43 189.904 36.51C189.584 36.61 189.264 36.66 188.944 36.66C188.404 36.66 187.894 36.39 187.414 35.85C186.954 35.31 186.534 34.53 186.154 33.51C185.854 32.69 185.564 31.71 185.284 30.57C185.004 29.43 184.754 28.24 184.534 27C184.814 26.82 185.164 26.56 185.584 26.22C186.004 25.86 186.444 25.45 186.904 24.99C188.664 23.29 189.544 21.82 189.544 20.58C189.544 20.42 189.434 20.34 189.214 20.34C188.814 20.36 188.344 20.55 187.804 20.91C187.264 21.27 186.684 21.77 186.064 22.41C185.464 23.05 184.844 23.8 184.204 24.66C183.584 25.52 182.984 26.45 182.404 27.45C182.164 27.85 181.944 28.31 181.744 28.83C181.544 29.35 181.364 29.89 181.204 30.45C181.064 30.99 180.954 31.53 180.874 32.07C180.794 32.61 180.754 33.11 180.754 33.57C180.754 33.85 180.784 34.08 180.844 34.26C180.224 34.2 179.844 34.04 179.704 33.78C179.544 33.54 179.404 33.34 179.284 33.18C179.184 33.04 179.074 32.92 178.954 32.82C178.774 32.68 178.624 32.38 178.504 31.92C178.384 31.46 178.324 30.88 178.324 30.18ZM203.74 20.58C203.66 21.82 203.44 22.89 203.08 23.79C202.72 24.67 202.2 25.45 201.52 26.13C200.86 26.79 200.05 27.39 199.09 27.93C198.13 28.47 197.01 28.99 195.73 29.49C195.73 29.61 195.72 29.74 195.7 29.88C195.7 30 195.7 30.13 195.7 30.27C195.7 30.53 195.72 30.8 195.76 31.08C195.8 31.36 195.87 31.62 195.97 31.86C196.07 32.1 196.21 32.3 196.39 32.46C196.57 32.6 196.8 32.67 197.08 32.67C197.62 32.67 198.15 32.55 198.67 32.31C199.19 32.07 199.68 31.78 200.14 31.44C200.62 31.08 201.06 30.7 201.46 30.3C201.88 29.88 202.25 29.5 202.57 29.16C202.77 29.34 202.94 29.51 203.08 29.67C202.18 30.87 201.19 31.87 200.11 32.67C199.05 33.45 198.04 33.95 197.08 34.17C195.7 34.01 194.62 33.51 193.84 32.67C193.08 31.81 192.7 30.78 192.7 29.58C192.7 28.76 192.81 27.93 193.03 27.09C193.27 26.23 193.59 25.41 193.99 24.63C194.41 23.83 194.89 23.08 195.43 22.38C195.99 21.68 196.58 21.07 197.2 20.55C197.84 20.03 198.49 19.62 199.15 19.32C199.83 19.02 200.5 18.87 201.16 18.87C202.08 18.99 202.94 19.56 203.74 20.58ZM201.67 21.57C201.13 21.65 200.57 21.87 199.99 22.23C199.41 22.59 198.86 23.07 198.34 23.67C197.84 24.27 197.38 24.97 196.96 25.77C196.54 26.57 196.21 27.43 195.97 28.35C197.57 27.55 198.9 26.57 199.96 25.41C201.02 24.23 201.59 22.95 201.67 21.57ZM204.409 32.4C204.509 31.82 204.679 31.06 204.919 30.12C205.179 29.16 205.479 28.15 205.819 27.09C206.159 26.01 206.519 24.93 206.899 23.85C207.279 22.77 207.649 21.8 208.009 20.94C208.269 20.32 208.499 19.84 208.699 19.5C208.899 19.14 209.119 18.84 209.359 18.6C209.639 18.64 209.929 18.71 210.229 18.81C210.529 18.91 210.819 19.03 211.099 19.17C211.379 19.31 211.629 19.46 211.849 19.62C212.069 19.76 212.239 19.9 212.359 20.04C211.819 20.68 211.339 21.41 210.919 22.23C210.519 23.05 210.109 24.1 209.689 25.38C210.769 24.42 211.719 23.5 212.539 22.62C213.379 21.74 214.159 20.76 214.879 19.68C214.999 19.58 215.209 19.53 215.509 19.53C215.789 19.53 216.059 19.58 216.319 19.68C216.579 19.76 216.759 19.88 216.859 20.04C216.499 21 216.319 21.95 216.319 22.89C216.319 23.77 216.449 24.43 216.709 24.87C216.689 24.99 216.549 25.22 216.289 25.56C216.049 25.9 215.779 26.22 215.479 26.52C214.939 26.24 214.459 25.86 214.039 25.38C213.619 24.88 213.309 24.34 213.109 23.76C212.169 24.42 211.369 25.07 210.709 25.71C210.049 26.33 209.479 27.03 208.999 27.81C208.539 28.57 208.139 29.45 207.799 30.45C207.479 31.45 207.169 32.64 206.869 34.02C206.689 34 206.469 33.93 206.209 33.81C205.969 33.71 205.719 33.58 205.459 33.42C205.219 33.26 204.999 33.09 204.799 32.91C204.599 32.73 204.469 32.56 204.409 32.4Z" fill="#1F1F1F"/>
<path d="M27.4415 35C26.7118 37.2159 25.6115 38.8541 24 41L31 41C29.4409 38.9481 28.2254 37.2789 27.4415 35Z" fill="#3FB171"/>
<path d="M38.3595 12L42.8884 16.5439C44.8754 18.5503 45.9935 21.2622 46 24.0908C46.0065 26.9194 44.9009 29.6364 42.9232 31.6521C40.9455 33.6677 38.2554 34.8193 35.4367 34.8569C32.618 34.8945 29.8982 33.8151 27.8678 31.8529C27.7707 31.7583 27.6423 31.7029 27.5071 31.6974L27.4038 31.6932C27.3277 31.6896 27.2518 31.7021 27.1809 31.7299C27.1101 31.7577 27.0458 31.8001 26.9924 31.8545C25.9981 32.8519 24.8179 33.6431 23.5189 34.1828C22.22 34.7225 20.8279 35.0002 19.422 35C18.2567 34.9999 17.101 34.8089 16 34.436L38.3595 12Z" fill="#3FB171"/>
<path d="M37 10.31L27.6062 1L12.1305 16.4762C11.1381 17.4596 10.3509 18.627 9.81382 19.9119C9.27669 21.1968 9.00016 22.574 9 23.9648C8.99984 25.3556 9.27606 26.7329 9.8129 28.0179C10.3497 29.3029 11.1367 30.4705 12.1287 31.4541C12.7261 32.0464 13.3909 32.5649 14.1083 33L37 10.31Z" fill="#275C43"/>
<path fill-rule="evenodd" clip-rule="evenodd" d="M41.6452 5.55594C42.6113 5.25752 43.5008 4.97764 44.3934 4.71051C44.6162 4.64387 44.8486 4.59171 45.0797 4.56853C45.5153 4.52159 45.8822 4.70124 46.0232 5.01589C46.1945 5.40239 46.0813 5.75875 45.7867 6.01835C45.4068 6.3527 44.976 6.63085 44.5688 6.93623C44.359 7.09442 44.154 7.25783 43.9501 7.41661C44.4556 8.11544 45.9005 9.51427 46.415 9.70433C46.6989 9.81037 47.0473 9.74953 47.3668 9.75996C47.9197 9.77908 48.1746 10.1615 47.8694 10.5683C47.4261 11.1576 46.949 11.7249 46.4648 12.2847C46.2461 12.5373 45.9539 12.7025 45.5935 12.5715C45.2154 12.4336 45.1858 12.1114 45.1858 11.7777C45.1864 11.6884 45.1597 11.5992 45.1325 11.4288C44.2446 10.8372 43.4991 9.9506 42.3606 9.47196C42.1152 9.99754 42.2474 10.4599 42.2059 10.9015C42.1579 11.4016 42.1324 11.908 42.0269 12.3965C41.9433 12.7836 41.5326 13.0339 41.1912 12.9963C40.8185 12.9551 40.5755 12.7135 40.5014 12.3948C40.3876 11.9069 40.32 11.4016 40.2969 10.8998C40.2608 10.1233 40.2537 9.34216 40.2839 8.5651C40.3034 8.06329 40.1559 7.69244 39.7475 7.37721C39.0855 6.86728 38.4419 6.33185 37.8166 5.77962C37.5434 5.53798 37.2986 5.24882 37.1001 4.94518C36.8672 4.58997 37.0616 4.20406 37.4681 4.08585C37.9897 3.93461 38.4857 3.98386 38.967 4.22839C39.7143 4.6091 40.4617 4.99038 41.212 5.36703C41.3761 5.44932 41.5486 5.51422 41.6452 5.55594Z" fill="#1F1F1F"/>
<path d="M50.2494 16C60.6429 28.297 39.3225 39 23.934 39C8.54548 39 -9.24836 30.5742 8.22153 22.6039" stroke="#1F1F1F" stroke-linecap="square"/>
</svg>
